<svg width="170" height="48" viewBox="0 0 170 48" fill="none" xmlns="http://www.w3.org/2000/svg">
<path d="M7.456 30.776H14.624V35H1.984V12.536H7.456V30.776ZM36.498 12.536L28.722 27.576V35H23.25V27.576L15.474 12.536H21.682L26.034 21.944L30.354 12.536H36.498ZM64.1428 12.536V35H58.6708V21.528L53.6468 35H49.2308L44.1748 21.496V35H38.7028V12.536H45.1667L51.4708 28.088L57.7108 12.536H64.1428ZM82.0618 31.032H73.6778L72.3338 35H66.6058L74.7338 12.536H81.0698L89.1978 35H83.4058L82.0618 31.032ZM80.6538 26.808L77.8698 18.584L75.1178 26.808H80.6538ZM111.768 35H106.296L97.1435 21.144V35H91.6715V12.536H97.1435L106.296 26.456V12.536H111.768V35ZM131.894 12.536V16.92H125.942V35H120.47V16.92H114.518V12.536H131.894ZM145.264 35.224C143.152 35.224 141.211 34.7333 139.44 33.752C137.691 32.7707 136.294 31.4053 135.248 29.656C134.224 27.8853 133.712 25.9013 133.712 23.704C133.712 21.5067 134.224 19.5333 135.248 17.784C136.294 16.0347 137.691 14.6693 139.44 13.688C141.211 12.7067 143.152 12.216 145.264 12.216C147.376 12.216 149.307 12.7067 151.056 13.688C152.827 14.6693 154.214 16.0347 155.216 17.784C156.24 19.5333 156.752 21.5067 156.752 23.704C156.752 25.9013 156.24 27.8853 155.216 29.656C154.192 31.4053 152.806 32.7707 151.056 33.752C149.307 34.7333 147.376 35.224 145.264 35.224ZM145.264 30.232C147.056 30.232 148.486 29.6347 149.552 28.44C150.64 27.2453 151.184 25.6667 151.184 23.704C151.184 21.72 150.64 20.1413 149.552 18.968C148.486 17.7733 147.056 17.176 145.264 17.176C143.451 17.176 142 17.7627 140.912 18.936C139.846 20.1093 139.312 21.6987 139.312 23.704C139.312 25.688 139.846 27.2773 140.912 28.472C142 29.6453 143.451 30.232 145.264 30.232Z" fill="#E5E5E5"/>
<circle cx="166" cy="4" r="4" fill="#F8E7A1"/>
</svg>
